<svg width="24" height="24" viewBox="0 0 24 24" fill="none" xmlns="http://www.w3.org/2000/svg">
<path d="M21.1007 7.24442C21.1162 7.45232 21.1162 7.65903 21.1162 7.86574C21.1162 14.1918 16.3012 21.4814 7.50168 21.4814C4.79066 21.4814 2.2721 20.6961 0.15271 19.3323C0.537622 19.3763 0.908278 19.3917 1.30863 19.3917C3.46247 19.3969 5.55531 18.6767 7.24982 17.3472C6.25121 17.3291 5.28318 16.9996 4.48088 16.4048C3.67858 15.8099 3.08206 14.9794 2.77463 14.0291C3.07044 14.073 3.36744 14.1027 3.67869 14.1027C4.10756 14.1027 4.53881 14.0433 4.93916 13.94C3.85542 13.7212 2.88092 13.1337 2.18136 12.2776C1.4818 11.4215 1.10037 10.3494 1.10192 9.24382V9.18442C1.73988 9.53964 2.48 9.76179 3.26408 9.79149C2.60722 9.355 2.06862 8.76271 1.69633 8.06745C1.32403 7.3722 1.12962 6.5956 1.13043 5.80694C1.13043 4.91832 1.36685 4.10335 1.78146 3.39292C2.98388 4.87201 4.48357 6.08203 6.1834 6.94464C7.88323 7.80724 9.74529 8.30318 11.649 8.40034C11.5753 8.04394 11.5302 7.67448 11.5302 7.30382C11.5299 6.67532 11.6534 6.05292 11.8938 5.47221C12.1342 4.89149 12.4866 4.36385 12.9311 3.91943C13.3755 3.47502 13.9031 3.12255 14.4838 2.88218C15.0646 2.6418 15.687 2.51824 16.3154 2.51856C17.6935 2.51856 18.9374 3.09592 19.8117 4.02969C20.883 3.82252 21.9104 3.43144 22.8483 2.87377C22.4912 3.97958 21.7431 4.91725 20.7443 5.51113C21.6945 5.40276 22.6231 5.15289 23.4993 4.76982C22.8449 5.7239 22.0339 6.56054 21.1007 7.24442Z" fill="#999EAD"/>
</svg>
