<svg width="24" height="24" viewBox="0 0 24 24" fill="none" xmlns="http://www.w3.org/2000/svg">
<g clip-path="url(#clip0_247_7404)">
<path d="M12.001 0.133484C5.44087 0.133484 0.122192 5.45216 0.122192 12.0123C0.122192 17.9404 4.46552 22.854 10.1453 23.7485V15.4468H7.12783V12.0123H10.1453V9.39513C10.1453 6.41563 11.919 4.77262 14.6312 4.77262C15.9309 4.77262 17.2924 5.00428 17.2924 5.00428V7.92558H15.7907C14.3176 7.92558 13.8567 8.84271 13.8567 9.78242V12.0099H17.1486L16.6223 15.4444H13.8567V23.7462C19.5365 22.8564 23.8798 17.9416 23.8798 12.0123C23.8798 5.45216 18.5611 0.133484 12.001 0.133484Z" fill="#999EAD"/>
</g>
<defs>
<clipPath id="clip0_247_7404">
<rect width="24" height="24" fill="white"/>
</clipPath>
</defs>
</svg>
