<svg width="24" height="24" viewBox="0 0 24 24" fill="none" xmlns="http://www.w3.org/2000/svg">
<path d="M22.6289 7.61031C22.6169 6.71055 22.4484 5.81973 22.1311 4.9777C21.8559 4.26746 21.4356 3.62243 20.897 3.08383C20.3584 2.54523 19.7133 2.1249 19.0031 1.8497C18.1719 1.53768 17.2938 1.36897 16.4061 1.35074C15.2633 1.29966 14.9009 1.2854 11.9998 1.2854C9.09873 1.2854 8.72688 1.2854 7.59234 1.35074C6.7051 1.3691 5.82739 1.53781 4.99656 1.8497C4.28621 2.12471 3.64108 2.54497 3.10246 3.0836C2.56383 3.62222 2.14357 4.26735 1.86856 4.9777C1.55592 5.80827 1.38757 6.68618 1.37079 7.57348C1.3197 8.71753 1.30426 9.07987 1.30426 11.981C1.30426 14.8821 1.30426 15.2527 1.37079 16.3884C1.38861 17.2771 1.55612 18.1538 1.86856 18.9866C2.14403 19.6967 2.5646 20.3416 3.10341 20.88C3.64222 21.4184 4.2874 21.8385 4.99775 22.1134C5.8263 22.438 6.70416 22.6188 7.59353 22.648C8.73758 22.6991 9.09992 22.7145 12.001 22.7145C14.9021 22.7145 15.274 22.7145 16.4085 22.648C17.2961 22.6305 18.1743 22.4622 19.0055 22.1502C19.7155 21.8747 20.3604 21.4543 20.8989 20.9157C21.4375 20.3772 21.8579 19.7323 22.1335 19.0222C22.4459 18.1906 22.6134 17.3139 22.6312 16.4241C22.6823 15.2812 22.6978 14.9189 22.6978 12.0166C22.6954 9.11551 22.6954 8.74723 22.6289 7.61031ZM11.9927 17.4671C8.95854 17.4671 6.50057 15.0092 6.50057 11.975C6.50057 8.94087 8.95854 6.4829 11.9927 6.4829C13.4493 6.4829 14.8462 7.06153 15.8762 8.09151C16.9062 9.12148 17.4848 10.5184 17.4848 11.975C17.4848 13.4316 16.9062 14.8286 15.8762 15.8585C14.8462 16.8885 13.4493 17.4671 11.9927 17.4671ZM17.7034 7.56042C17.5352 7.56057 17.3686 7.52755 17.2131 7.46325C17.0577 7.39895 16.9165 7.30462 16.7975 7.18567C16.6785 7.06672 16.5842 6.92547 16.5199 6.77003C16.4556 6.61458 16.4226 6.44798 16.4227 6.27975C16.4227 6.11165 16.4559 5.9452 16.5202 5.78989C16.5845 5.63459 16.6788 5.49347 16.7977 5.37461C16.9165 5.25574 17.0577 5.16145 17.213 5.09712C17.3683 5.03279 17.5347 4.99968 17.7028 4.99968C17.8709 4.99968 18.0374 5.03279 18.1927 5.09712C18.348 5.16145 18.4891 5.25574 18.608 5.37461C18.7268 5.49347 18.8211 5.63459 18.8854 5.78989C18.9498 5.9452 18.9829 6.11165 18.9829 6.27975C18.9829 6.9878 18.4103 7.56042 17.7034 7.56042Z" fill="#999EAD"/>
<path d="M11.9927 15.5426C13.963 15.5426 15.5603 13.9453 15.5603 11.975C15.5603 10.0047 13.963 8.40746 11.9927 8.40746C10.0224 8.40746 8.42513 10.0047 8.42513 11.975C8.42513 13.9453 10.0224 15.5426 11.9927 15.5426Z" fill="#999EAD"/>
</svg>
